REM DIRINDEX 1\2,1\4,1\5,1\6,1\7,1\3\8,1\3\9,1\3\10
REM DIRNAME cjc113,folder01,folder02,folder03,folder04,folder05,folder06,folder07,folder08,folder09
TITLE ""
FILE "DB4500_5th_1A_11.mp3" MP3
  TRACK 01 AUDIO
    TITLE "0:"
    INDEX 01 00:00:00
  TRACK 02 AUDIO
    TITLE "8:cjc113_0471"
    INDEX 01 00:00:01
  TRACK 03 AUDIO
    TITLE "0:"
    INDEX 01 00:01:15
  TRACK 04 AUDIO
    TITLE "9:cjc113_0472"
    INDEX 01 00:01:34
  TRACK 05 AUDIO
    TITLE "0:"
    INDEX 01 00:02:63
  TRACK 06 AUDIO
    TITLE "10:cjc113_0473"
    INDEX 01 00:03:10
  TRACK 07 AUDIO
    TITLE "0:"
    INDEX 01 00:06:67
  TRACK 08 AUDIO
    TITLE "8:cjc113_0474"
    INDEX 01 00:07:33
  TRACK 09 AUDIO
    TITLE "0:"
    INDEX 01 00:08:40
  TRACK 10 AUDIO
    TITLE "9:cjc113_0475"
    INDEX 01 00:08:60
  TRACK 11 AUDIO
    TITLE "0:"
    INDEX 01 00:10:04
  TRACK 12 AUDIO
    TITLE "10:cjc113_0476"
    INDEX 01 00:10:21
  TRACK 13 AUDIO
    TITLE "0:"
    INDEX 01 00:14:00
  TRACK 14 AUDIO
    TITLE "8:cjc113_0477"
    INDEX 01 00:14:45
  TRACK 15 AUDIO
    TITLE "0:"
    INDEX 01 00:15:58
  TRACK 16 AUDIO
    TITLE "9:cjc113_0478"
    INDEX 01 00:16:02
  TRACK 17 AUDIO
    TITLE "0:"
    INDEX 01 00:17:18
  TRACK 18 AUDIO
    TITLE "10:cjc113_0479"
    INDEX 01 00:17:37
  TRACK 19 AUDIO
    TITLE "0:"
    INDEX 01 00:21:33
  TRACK 20 AUDIO
    TITLE "8:cjc113_0480"
    INDEX 01 00:22:01
  TRACK 21 AUDIO
    TITLE "0:"
    INDEX 01 00:23:08
  TRACK 22 AUDIO
    TITLE "9:cjc113_0481"
    INDEX 01 00:23:26
  TRACK 23 AUDIO
    TITLE "0:"
    INDEX 01 00:24:43
  TRACK 24 AUDIO
    TITLE "10:cjc113_0482"
    INDEX 01 00:24:59
  TRACK 25 AUDIO
    TITLE "0:"
    INDEX 01 00:27:69
  TRACK 26 AUDIO
    TITLE "8:cjc113_0483"
    INDEX 01 00:28:37
  TRACK 27 AUDIO
    TITLE "0:"
    INDEX 01 00:29:64
  TRACK 28 AUDIO
    TITLE "9:cjc113_0484"
    INDEX 01 00:30:06
  TRACK 29 AUDIO
    TITLE "0:"
    INDEX 01 00:31:29
  TRACK 30 AUDIO
    TITLE "10:cjc113_0485"
    INDEX 01 00:31:47
  TRACK 31 AUDIO
    TITLE "0:"
    INDEX 01 00:35:43
  TRACK 32 AUDIO
    TITLE "8:cjc113_0486"
    INDEX 01 00:36:13
  TRACK 33 AUDIO
    TITLE "0:"
    INDEX 01 00:37:22
  TRACK 34 AUDIO
    TITLE "9:cjc113_0487"
    INDEX 01 00:37:40
  TRACK 35 AUDIO
    TITLE "0:"
    INDEX 01 00:38:67
  TRACK 36 AUDIO
    TITLE "10:cjc113_0488"
    INDEX 01 00:39:09
  TRACK 37 AUDIO
    TITLE "0:"
    INDEX 01 00:43:13
  TRACK 38 AUDIO
    TITLE "8:cjc113_0489"
    INDEX 01 00:43:58
  TRACK 39 AUDIO
    TITLE "0:"
    INDEX 01 00:44:69
  TRACK 40 AUDIO
    TITLE "9:cjc113_0490"
    INDEX 01 00:45:14
  TRACK 41 AUDIO
    TITLE "0:"
    INDEX 01 00:46:43
  TRACK 42 AUDIO
    TITLE "10:cjc113_0491"
    INDEX 01 00:46:56
  TRACK 43 AUDIO
    TITLE "0:"
    INDEX 01 00:51:73
  TRACK 44 AUDIO
    TITLE "8:cjc113_0492"
    INDEX 01 00:52:53
  TRACK 45 AUDIO
    TITLE "0:"
    INDEX 01 00:53:57
  TRACK 46 AUDIO
    TITLE "9:cjc113_0493"
    INDEX 01 00:54:03
  TRACK 47 AUDIO
    TITLE "0:"
    INDEX 01 00:55:30
  TRACK 48 AUDIO
    TITLE "10:cjc113_0494"
    INDEX 01 00:55:55
  TRACK 49 AUDIO
    TITLE "0:"
    INDEX 01 00:58:28
  TRACK 50 AUDIO
    TITLE "10:cjc113_0495"
    INDEX 01 00:59:02
  TRACK 51 AUDIO
    TITLE "0:"
    INDEX 01 01:02:28
  TRACK 52 AUDIO
    TITLE "8:cjc113_0496"
    INDEX 01 01:03:00
  TRACK 53 AUDIO
    TITLE "0:"
    INDEX 01 01:04:19
  TRACK 54 AUDIO
    TITLE "9:cjc113_0497"
    INDEX 01 01:04:37
  TRACK 55 AUDIO
    TITLE "0:"
    INDEX 01 01:05:52
  TRACK 56 AUDIO
    TITLE "10:cjc113_0498"
    INDEX 01 01:06:02
  TRACK 57 AUDIO
    TITLE "0:"
    INDEX 01 01:09:73
  TRACK 58 AUDIO
    TITLE "8:cjc113_0499"
    INDEX 01 01:10:47
  TRACK 59 AUDIO
    TITLE "0:"
    INDEX 01 01:11:60
  TRACK 60 AUDIO
    TITLE "9:cjc113_0500"
    INDEX 01 01:12:07
  TRACK 61 AUDIO
    TITLE "0:"
    INDEX 01 01:13:34
  TRACK 62 AUDIO
    TITLE "10:cjc113_0501"
    INDEX 01 01:13:57
  TRACK 63 AUDIO
    TITLE "0:"
    INDEX 01 01:16:60
  TRACK 64 AUDIO
    TITLE "8:cjc113_0502"
    INDEX 01 01:17:30
  TRACK 65 AUDIO
    TITLE "0:"
    INDEX 01 01:18:45
  TRACK 66 AUDIO
    TITLE "9:cjc113_0503"
    INDEX 01 01:18:68
  TRACK 67 AUDIO
    TITLE "0:"
    INDEX 01 01:20:40
  TRACK 68 AUDIO
    TITLE "10:cjc113_0504"
    INDEX 01 01:20:65
  TRACK 69 AUDIO
    TITLE "0:"
    INDEX 01 01:24:45
  TRACK 70 AUDIO
    TITLE "8:cjc113_0505"
    INDEX 01 01:25:17
  TRACK 71 AUDIO
    TITLE "0:"
    INDEX 01 01:26:30
  TRACK 72 AUDIO
    TITLE "9:cjc113_0506"
    INDEX 01 01:26:52
  TRACK 73 AUDIO
    TITLE "0:"
    INDEX 01 01:28:10
  TRACK 74 AUDIO
    TITLE "10:cjc113_0507"
    INDEX 01 01:28:33
  TRACK 75 AUDIO
    TITLE "0:"
    INDEX 01 01:30:58
